<svg version="1.2" xmlns="http://www.w3.org/2000/svg" viewBox="0 0 512 512" width="512" height="512">
	<style>
		.s0 { fill: #42b847 } 
	</style>
	<path id="Path 0" fill-rule="evenodd" class="s0" d="m229.81 1.36c42.18 0.21 78.94 0.68 81.69 1.04 2.75 0.35 9.5 1.14 15 1.73 5.5 0.6 10.68 1.46 11.5 1.92 0.82 0.45 4.43 1.34 8 1.98 3.57 0.64 6.95 1.5 7.5 1.92 0.55 0.42 2.57 1.06 4.5 1.43 1.93 0.36 5.98 1.6 9 2.77 3.02 1.16 7.25 2.84 9.38 3.73 2.14 0.89 9.34 4.36 16 7.72 6.67 3.35 16.39 8.95 21.62 12.44 5.23 3.49 11.74 8.17 14.47 10.4 2.74 2.23 5.66 4.63 6.5 5.33 0.84 0.7 5.8 5.47 11.03 10.6 5.23 5.13 11.3 11.45 13.5 14.04 2.2 2.6 4.09 5.03 4.21 5.41 0.11 0.37 1.81 2.48 3.77 4.68 1.97 2.2 3.79 4.79 4.05 5.75 0.26 0.96 0.81 1.73 1.22 1.71 0.41-0.02 1.43 1.35 2.25 3.04 0.82 1.69 1.73 3.04 2 3 0.27-0.04 1.18 1.31 2 3 0.82 1.69 1.73 3.06 2 3.03 0.27-0.03 1.06 1.52 1.75 3.46 0.69 1.93 1.59 3.5 2 3.49 0.41-0.02 1.43 1.79 2.25 4.02 0.82 2.23 1.84 4.04 2.25 4.02 0.41-0.01 1.31 2.01 2 4.49 0.69 2.48 1.59 4.5 2 4.5 0.41-0.01 1.31 2.25 2 5 0.69 2.76 1.48 5 1.75 4.97 0.27-0.02 1.13 2.11 1.91 4.74 0.77 2.63 1.71 5.23 2.1 5.78 0.38 0.55 1.28 3.93 2.01 7.5 0.72 3.57 1.66 6.72 2.09 7 0.42 0.28 1.33 4.78 2.02 10 0.68 5.22 1.72 9.82 2.31 10.21 0.74 0.5 1.06 34.06 1.06 110.29 0 76.68-0.32 109.79-1.07 110.29-0.59 0.39-1.6 3.97-2.25 7.96-0.65 3.99-1.52 7.24-1.93 7.23-0.41-0.01-1.31 2.47-2 5.5-0.69 3.04-1.59 5.51-2 5.49-0.41-0.02-1.43 2.02-2.25 4.53-0.82 2.51-1.73 4.54-2 4.51-0.27-0.03-1.18 1.54-2 3.49-0.82 1.95-1.73 3.51-2 3.48-0.27-0.03-1.18 1.33-2 3.02-0.82 1.69-1.73 3.04-2 3-0.27-0.04-1.18 1.31-2 3-0.82 1.69-1.84 3.06-2.25 3.04-0.41-0.02-1.05 0.75-1.43 1.71-0.37 0.96-1.6 2.69-2.75 3.83-1.14 1.14-4.17 4.29-6.74 7-2.57 2.71-6.54 6.49-8.82 8.42-2.28 1.92-5.35 4.53-6.83 5.79-1.47 1.26-3.47 2.5-4.43 2.75-0.96 0.25-1.74 0.8-1.73 1.21 0 0.41-3.03 2.32-6.75 4.23-3.73 1.91-6.88 3.82-7.02 4.25-0.14 0.42-0.81 0.78-1.5 0.79-0.69 0.01-3.5 1.1-6.25 2.41-2.75 1.31-6.69 2.65-8.75 2.98-2.06 0.32-3.74 0.93-3.73 1.34 0.02 0.41-1.45 1.12-3.25 1.57-1.8 0.45-8.67 1.31-15.27 1.92-6.6 0.6-20.32 1.08-30.5 1.07-10.18-0.01-21.88-0.53-26-1.14-4.45-0.67-8.62-1.95-10.25-3.15-1.51-1.11-3.09-2.04-3.5-2.06-0.41-0.02-1.72-1.03-2.91-2.25-1.18-1.22-2.76-2.72-3.5-3.34-0.74-0.62-2.47-2.44-3.84-4.04-1.38-1.6-3.72-5.37-5.22-8.37-1.5-3-3.07-7.6-3.5-10.23-0.43-2.62-1.12-4.75-1.53-4.75-0.41 0.01-0.76-20.57-0.77-45.73 0-25.16-0.34-46.26-0.75-46.89-0.4-0.63-4.23-1.75-8.5-2.5-4.27-0.75-7.76-1.7-7.75-2.11 0.01-0.41-1.89-0.98-4.23-1.27-2.34-0.29-5.38-1.11-6.75-1.83-1.38-0.72-4.87-1.95-7.76-2.73-2.9-0.78-5.26-1.76-5.25-2.17 0-0.41-0.67-0.75-1.49-0.75-1.3 0-1.53 4.19-2 61.5l-2.75 5.75c-1.51 3.16-3.31 6.46-4 7.33-0.69 0.87-3.61 4.02-6.5 7-2.89 2.98-6.15 5.65-7.25 5.92-1.1 0.27-2 0.95-2 1.5 0 0.55-1.91 1.54-4.25 2.2-2.34 0.66-4.57 1.67-4.96 2.25-0.49 0.71-16.22 1.05-48.29 1.05-32.36 0-47.8-0.34-48.29-1.06-0.39-0.58-4.31-1.61-8.71-2.29-4.4-0.68-8.22-1.58-8.5-2-0.28-0.43-3.09-1.31-6.25-1.96-3.16-0.66-5.74-1.53-5.74-1.94 0.01-0.41-2.24-1.31-5-2-2.75-0.69-5.01-1.7-5.01-2.25 0-0.55-0.56-1-1.25-1-0.69 0-4.17-1.46-7.75-3.25-3.58-1.79-7.06-3.81-7.75-4.5-0.69-0.69-2.15-1.48-3.25-1.75-1.1-0.27-1.98-0.84-1.96-1.25 0.02-0.41-1.34-1.43-3.04-2.25-1.69-0.83-3.28-2.06-3.54-2.75-0.25-0.69-1.02-1.26-1.71-1.28-0.69-0.01-1.93-0.65-2.75-1.42-0.83-0.76-6.16-5.81-11.85-11.22-5.7-5.41-13.46-13.99-17.25-19.08-3.8-5.09-6.9-9.7-6.9-10.25 0-0.55-0.34-0.99-0.75-0.97-0.41 0.01-3.75-5.95-7.41-13.25-3.67-7.3-6.97-14.41-7.33-15.78-0.37-1.38-1.27-3.85-2.01-5.5-0.73-1.65-1.66-4.8-2.05-7-0.39-2.2-1.08-4.45-1.53-5-0.45-0.55-1.34-5.5-1.99-11-0.64-5.5-1.57-10.9-2.06-12-0.53-1.17-0.79-54.33-0.63-128 0.27-119.59 0.38-126.31 2.15-132 1.02-3.3 2.48-6.56 3.24-7.25 0.75-0.69 1.36-1.81 1.34-2.5-0.01-0.69 2.58-4.11 5.75-7.6 4.34-4.77 7.66-7.27 20.78-13.65l17.5 0.18c9.62 0.1 20.2 0.63 23.5 1.2 3.3 0.56 10.05 1.74 15 2.63 4.95 0.89 9.45 1.92 10 2.3 0.55 0.37 3.03 1.22 5.5 1.89 2.47 0.67 5.29 1.23 6.25 1.26 1.1 0.02 1.75-0.71 1.75-1.96 0-1.1 0.55-3.24 1.23-4.75 0.68-1.51 1.46-2.98 1.75-3.25 0.29-0.28 1.2-1.85 2.02-3.5 0.83-1.65 4.04-5.48 7.15-8.5 3.1-3.03 8.05-6.72 11-8.22 2.94-1.49 7.4-3.02 9.91-3.39 2.51-0.37 4.9-1.06 5.31-1.54 0.42-0.49 34.47-0.71 77.44-0.49zm-78.31 44.81c-0.44 77.75-0.13 104.83 0.41 110.33 0.54 5.5 1.67 14.27 2.51 19.5 0.85 5.22 2 10.29 2.56 11.25 0.56 0.96 1.58 4.68 2.27 8.26 0.69 3.59 1.59 6.51 2 6.5 0.41 0 0.96 1.45 1.22 3.24 0.26 1.79 1.65 5.95 3.1 9.25 1.44 3.3 3.3 7.57 4.14 9.5 0.83 1.92 2.7 5.97 4.15 9 1.45 3.02 3.2 6.06 3.89 6.75 0.69 0.69 1.47 2.37 1.75 3.75 0.28 1.37 0.84 2.48 1.25 2.46 0.41-0.02 1.43 1.35 2.25 3.04 0.82 1.69 1.84 3.06 2.25 3.04 0.41-0.02 0.96 0.75 1.21 1.71 0.25 0.96 1.27 2.76 2.25 4 0.98 1.23 3.82 4.96 6.29 8.28 2.47 3.31 10.24 11.86 17.25 19 7.01 7.13 13.09 12.99 13.5 13.01 0.41 0.02 2.32 1.39 4.25 3.03 1.93 1.64 4.18 3.63 5 4.43 0.82 0.79 2.06 1.46 2.75 1.47 0.69 0.02 1.59 0.64 2 1.39 0.41 0.76 2.27 2.22 4.13 3.25 1.86 1.04 4.33 2.45 5.5 3.14 1.17 0.69 2.34 1.59 2.62 2 0.28 0.41 3.65 2.32 7.5 4.25 3.85 1.92 7.23 3.77 7.5 4.11 0.27 0.33 2.3 1.23 4.5 1.99 2.2 0.77 4.23 1.66 4.5 2 0.27 0.34 2.3 1.2 4.5 1.93 2.2 0.72 5.13 1.91 6.5 2.64 1.38 0.72 3.18 1.32 4 1.33 0.82 0.01 2.63 0.6 4 1.32 1.38 0.71 5.43 1.9 9 2.64 3.57 0.74 6.95 1.67 7.5 2.08 0.55 0.41 5.27 1.29 10.5 1.95 5.23 0.66 10.4 1.68 11.5 2.27 1.25 0.66 14.03 1.2 34 1.44 17.6 0.21 33.35 0.58 35 0.83 1.65 0.24 4.83 2.13 7.07 4.2 2.23 2.08 4.6 5.34 5.26 7.27 0.66 1.92 1.2 5.3 1.2 7.5 0 2.2-0.54 5.57-1.2 7.5-0.66 1.92-2.81 4.98-4.77 6.79-1.96 1.8-4.12 3.27-4.81 3.25-0.69-0.02-1.25 0.41-1.25 0.96 0 0.64-10 1-28 1h-28l0.07 83.5 6.43 5.82c34.99-0.67 42.82-1.2 43.29-1.9 0.39-0.6 3.53-1.72 6.98-2.5 3.45-0.78 6.26-1.76 6.25-2.17-0.01-0.41 2-1.2 4.48-1.75 2.48-0.55 4.49-1.34 4.48-1.75-0.01-0.41 1.57-1.43 3.52-2.25 1.95-0.83 3.53-1.84 3.52-2.25-0.01-0.41 0.43-0.75 0.98-0.75 0.55 0 2.9-1.46 5.23-3.25 2.33-1.79 5.02-3.93 5.99-4.75 0.96-0.83 3.22-3 5.02-4.84 1.79-1.84 4.61-4.78 6.26-6.53 1.65-1.75 3.68-4.64 4.5-6.41 0.82-1.77 1.84-3.22 2.25-3.22 0.41 0 2.09-2.81 3.73-6.25 1.64-3.44 2.99-6.81 3-7.5 0.01-0.69 0.36-1.24 0.77-1.23 0.41 0.01 1.36-2.58 2.11-5.75 0.75-3.17 1.74-6.22 2.21-6.77 0.46-0.55 1.31-5.27 1.87-10.5 0.61-5.7 1.03-42.74 1.04-92.5 0.01-51.37-0.4-88.33-1.08-97-0.61-7.7-1.44-14.23-1.86-14.5-0.41-0.28-1.26-4.21-1.89-8.75-0.63-4.54-1.49-8.24-1.9-8.23-0.41 0.01-1.36-2.58-2.11-5.75-0.75-3.17-1.7-6.22-2.12-6.77-0.42-0.55-1.26-2.58-1.88-4.5-0.61-1.93-2.03-5.3-3.14-7.5-1.11-2.2-2.01-4.56-2.01-5.25 0.01-0.69-0.34-1.36-0.76-1.5-0.43-0.14-2.34-3.29-4.25-7.02-1.91-3.72-3.71-6.75-3.98-6.74-0.27 0.01-1.16-1.45-1.97-3.24-0.8-1.79-2.15-3.96-3-4.84-0.84-0.87-2.21-2.6-3.03-3.84-0.82-1.25-3.52-4.82-6-7.93-2.48-3.12-8.42-9.49-13.21-14.16-4.79-4.66-9.96-9.46-11.5-10.65-1.53-1.19-4.25-3.33-6.04-4.75-1.79-1.42-3.7-2.58-4.25-2.58-0.55 0-1-0.45-1-1 0-0.55-1.13-1.45-2.5-2-1.38-0.55-2.49-1.34-2.48-1.75 0.01-0.41-1.57-1.43-3.52-2.25-1.95-0.83-3.52-1.73-3.5-2 0.02-0.28-1.55-1.18-3.5-2-1.95-0.83-3.53-1.84-3.52-2.25 0.01-0.41-1.79-1.31-4-2-2.22-0.69-4-1.48-3.97-1.75 0.02-0.28-2-1.18-4.51-2-2.51-0.83-4.54-1.73-4.51-2 0.03-0.28-2.44-1.06-5.47-1.75-3.04-0.69-5.69-1.59-5.9-2-0.21-0.41-3.25-1.39-6.75-2.17-3.5-0.78-6.6-1.72-6.87-2.08-0.27-0.37-4.32-1.19-9-1.83-4.68-0.65-9.96-1.17-11.75-1.17-1.79 0-3.25-0.45-3.25-1 0-0.66-26.18-0.96-76.75-0.89l-76.75 0.1zm-110.73 147.69c0.15 81.95 0.57 124.14 1.23 124.14 0.55 0 1 1.24 0.99 2.75 0 1.52 0.52 5.45 1.17 8.75 0.65 3.3 1.48 6.23 1.86 6.5 0.38 0.28 1.2 2.87 1.83 5.75 0.63 2.89 1.6 5.25 2.15 5.25 0.55 0 1.23 1.58 1.5 3.5 0.28 1.93 1.08 4.07 1.79 4.75 0.71 0.69 1.95 2.74 2.75 4.54 0.8 1.81 1.69 3.27 1.96 3.24 0.28-0.04 1.18 1.53 2 3.47 0.83 1.94 2.06 3.75 2.75 4.02 0.69 0.27 1.26 1.05 1.28 1.73 0.01 0.69 0.66 1.93 1.43 2.75 0.77 0.83 5.59 5.82 10.72 11.1 5.13 5.28 11.8 11.45 14.82 13.72 3.03 2.27 6.06 4.14 6.75 4.16 0.69 0.01 1.23 0.36 1.21 0.77-0.02 0.42 1.35 1.43 3.04 2.25 1.69 0.83 3.05 1.73 3.02 2-0.04 0.28 1.74 1.07 3.96 1.75 2.21 0.69 4.01 1.59 4 2-0.01 0.42 2.47 1.43 5.52 2.25 3.05 0.83 5.52 1.73 5.5 2-0.03 0.28 2.78 1.13 6.23 1.9 3.45 0.77 6.72 1.75 7.27 2.17 0.55 0.42 6.18 1.26 12.5 1.85 6.32 0.59 23.99 1.08 39.25 1.08 20.14 0 28.47-0.34 30.36-1.25 1.44-0.68 3.47-3.05 4.52-5.25 1.75-3.68 1.9-6.64 1.88-37.25-0.01-28.88-0.21-33.25-1.51-33.25-0.82 0-1.72-0.67-2-1.5-0.27-0.82-0.95-1.5-1.5-1.5-0.55 0-3.14-1.46-5.75-3.25-2.61-1.78-4.97-3.47-5.25-3.75-0.27-0.27-2.52-2.06-5-3.97-2.47-1.91-5.1-3.93-5.83-4.5-0.73-0.56-7.25-6.93-14.5-14.14-7.24-7.22-13.85-13.97-14.67-15.02-0.82-1.04-2.62-3.27-4-4.94-1.37-1.68-3.4-4.33-4.5-5.89-1.1-1.56-2.68-3.57-3.5-4.47-0.82-0.89-2.17-2.96-3-4.6-0.82-1.63-2.06-3.3-2.75-3.72-0.69-0.41-1.25-1.42-1.25-2.25 0-0.82-0.59-1.83-1.31-2.25-0.72-0.41-1.96-2.23-2.75-4.03-0.79-1.81-1.78-3.28-2.19-3.25-0.41 0.02-1.18-1.43-1.7-3.22-0.52-1.78-1.66-3.92-2.53-4.75-0.87-0.82-1.79-2.73-2.05-4.25-0.26-1.51-0.92-2.75-1.47-2.75-0.55 0-1.55-1.91-2.21-4.25-0.67-2.33-1.8-4.81-2.5-5.5-0.71-0.68-1.51-2.82-1.79-4.75-0.27-1.92-0.95-3.5-1.5-3.5-0.55 0-1.56-2.48-2.25-5.51-0.69-3.04-1.47-5.5-1.75-5.48-0.27 0.02-1.17-2.68-2-6.01-0.82-3.32-1.72-6.02-2-6-0.27 0.02-1.14-3.46-1.91-7.73-0.78-4.27-1.75-7.99-2.16-8.27-0.41-0.27-1.32-5.9-2.03-12.5-0.71-6.6-1.76-12.32-2.34-12.71-0.7-0.47-1.23-15.2-1.56-43.71l-0.5-42.99c-3.49-0.84-4.5-1.54-4.5-2.09 0-0.55-2.48-1.56-5.52-2.25-3.03-0.68-5.51-1.58-5.5-2 0.01-0.41-3.24-1.28-7.23-1.93-3.99-0.65-7.47-1.5-7.75-1.89-0.27-0.39-6.01-1.21-12.75-1.82-6.74-0.61-14.61-1.09-17.5-1.07-2.89 0.01-6.14 0.63-7.23 1.36-1.96 1.31-1.98 2.73-1.75 125.46zm348.78 22.14c2.45 0 4.62 0.34 4.83 0.75 0.21 0.42 2.13 1.09 4.25 1.51 2.13 0.41 5.67 1.99 7.87 3.5 2.2 1.51 4.1 2.97 4.22 3.24 0.12 0.28 1.15 1.63 2.29 3 1.14 1.38 2.34 3.4 2.66 4.5 0.33 1.1 1.1 2.33 1.71 2.72 0.69 0.44 1.12 4.26 1.12 10 0 7.55-0.42 10.17-2.25 14.03-1.24 2.62-4.05 6.55-6.25 8.75-2.2 2.2-4.67 4-5.5 4-0.82 0-1.5 0.45-1.5 1 0 0.55-2.02 1.45-4.5 2-2.47 0.55-6.52 1-9 1-2.47 0-6.75-0.45-9.5-1-2.75-0.55-5-1.45-5-2 0-0.55-0.56-0.99-1.25-0.98-0.69 0-3.39-2.25-6-5-2.61-2.76-5.04-6.25-5.4-7.77-0.36-1.51-1.15-3.07-1.75-3.46-0.67-0.43-1.1-4.31-1.1-9.78 0-5.26 0.44-9.38 1.06-9.79 0.58-0.39 1.7-2.28 2.5-4.19 0.79-1.92 2.37-4.39 3.5-5.5 1.13-1.12 3.72-3.26 5.75-4.78 2.03-1.51 5.41-3.03 7.51-3.38 2.1-0.34 4.15-1.02 4.55-1.5 0.4-0.47 2.73-0.87 5.18-0.87z"/>
</svg>