<svg version="1.2" xmlns="http://www.w3.org/2000/svg" viewBox="0 0 512 512" width="512" height="512">
	<style>
		.s0 { fill: #42b847 } 
	</style>
	<path id="Path 0" fill-rule="evenodd" class="s0" d="m255.5 0.06c42.81-0.08 46.56 0.06 54 1.92 4.4 1.09 11.82 3.89 16.5 6.22 6.91 3.44 10.28 6.01 18.04 13.76 7.71 7.71 10.35 11.17 13.79 18.04 2.34 4.67 5.13 11.88 6.2 16 1.76 6.82 1.94 11.23 1.97 90l40.75-0.01c37.42-0.01 41.4 0.15 48.75 1.99 4.4 1.09 11.82 3.89 16.5 6.22 6.91 3.44 10.28 6.01 18.04 13.76 7.71 7.71 10.35 11.17 13.79 18.04 2.34 4.68 5.13 11.88 6.2 16 1.78 6.88 1.94 11.3 1.96 53.5 0.03 42.7-0.11 46.57-1.97 54-1.09 4.4-3.89 11.82-6.22 16.5-3.44 6.91-6.01 10.28-13.76 18.04-7.76 7.75-11.13 10.32-18.04 13.76-4.68 2.33-12.1 5.13-16.5 6.22-7.35 1.84-11.33 2-89.5 1.98l0.01 40.75c0.01 37.42-0.15 41.4-1.99 48.75-1.09 4.4-3.89 11.82-6.22 16.5-3.44 6.91-6.01 10.28-13.76 18.04-7.76 7.75-11.13 10.32-18.04 13.76-4.68 2.33-12.1 5.13-16.5 6.22-7.41 1.85-11.36 2-53.5 2-42.14 0-46.09-0.15-53.5-2-4.4-1.09-11.82-3.9-16.5-6.23-6.74-3.37-10.38-6.11-17.6-13.27-5.7-5.65-10.46-11.45-12.71-15.52-1.99-3.57-4.86-9.87-9.13-21.5l-0.56-87.5-40.75 0.01c-37.42 0.01-41.4-0.15-48.75-1.99-4.4-1.09-11.82-3.9-16.5-6.23-6.74-3.37-10.38-6.11-17.6-13.27-5.7-5.65-10.46-11.45-12.71-15.52-1.99-3.57-4.86-9.87-9.14-21.5l-0.34-48.5c-0.29-42.21-0.12-49.41 1.31-55.5 0.9-3.85 3.69-11.28 6.21-16.5 3.95-8.22 5.86-10.8 14.17-19.1 8.31-8.31 10.88-10.22 19.1-14.17 5.23-2.51 12.76-5.27 16.75-6.15 5.95-1.3 14.51-1.58 88.25-1.58l0.01-41.25c0-34.18 0.28-42.36 1.59-47.75 0.87-3.57 3.63-10.77 6.14-16 3.95-8.24 5.83-10.77 14.16-19.09 7.8-7.78 11.19-10.37 18.1-13.81 4.68-2.33 11.88-5.07 16-6.09 6.74-1.67 12.17-1.87 53.5-1.95zm-53.5 35.04c-3.93 1.88-8.73 5.34-12.15 8.75-3.44 3.45-6.85 8.19-8.73 12.15-1.91 4.01-3.47 9.38-4.08 14-0.54 4.13-0.99 22.91-1.01 41.75l-0.03 34.25c81.69 0.01 85.74 0.17 88.23 1.76 1.5 0.96 3.63 3.09 4.74 4.74 1.41 2.1 2.02 4.65 2.02 8.5 0 3.85-0.61 6.4-2.02 8.5-1.11 1.65-3.24 3.78-4.74 4.74-2.54 1.63-8.99 1.75-94.73 1.78-54.19 0.03-95.08 0.45-99.5 1.02-4.62 0.61-9.99 2.17-14 4.08-3.96 1.88-8.7 5.29-12.15 8.73-3.44 3.45-6.85 8.19-8.73 12.15-1.91 4.01-3.47 9.38-4.08 14-0.54 4.13-0.98 22.13-0.98 40 0 17.88 0.44 35.88 0.98 40 0.61 4.62 2.17 9.99 4.08 14 1.88 3.96 5.29 8.7 8.73 12.15 3.45 3.44 8.19 6.85 12.15 8.73 4.01 1.91 9.38 3.47 14 4.08 4.13 0.54 22.91 0.99 41.75 1.01l34.25 0.03c0.01-83.94 0.09-85.61 2.03-88.5 1.11-1.65 3.24-3.78 4.74-4.74 2.54-1.63 8.87-1.75 92.98-1.75l90.25-0.01c-0.05-129.27-0.47-166.64-1.04-171-0.61-4.62-2.17-9.99-4.08-14-1.88-3.96-5.29-8.7-8.73-12.15-3.45-3.44-8.19-6.85-12.15-8.73-4.01-1.91-9.38-3.47-14-4.08-4.12-0.54-22.57-0.94-41-0.88-18.43 0.05-36.43 0.48-40 0.96-3.63 0.48-9.37 2.24-13 3.98zm163.99 183.65c0 41.19-0.08 42.86-2.02 45.75-1.11 1.65-3.24 3.78-4.74 4.74-2.54 1.63-8.87 1.75-92.98 1.75l-90.25 0.01c0.05 129.27 0.47 166.64 1.04 171 0.61 4.62 2.17 9.99 4.08 14 1.88 3.96 5.29 8.7 8.73 12.15 3.45 3.44 8.19 6.85 12.15 8.73 4.01 1.91 9.38 3.47 14 4.08 4.12 0.54 22.12 0.98 40 0.98 17.87 0 35.87-0.44 40-0.98 4.62-0.61 9.99-2.17 14-4.08 3.96-1.88 8.7-5.29 12.15-8.73 3.44-3.45 6.85-8.19 8.73-12.15 1.91-4.01 3.47-9.38 4.08-14 0.54-4.13 0.99-22.91 1.01-41.75l0.03-34.25c-83.94-0.01-85.61-0.09-88.5-2.03-1.65-1.11-3.78-3.24-4.74-4.74-1.12-1.75-1.75-4.71-1.75-8.23 0-3.52 0.63-6.48 1.75-8.23 0.96-1.5 3.09-3.63 4.74-4.74 2.95-1.98 4.47-2.02 95-2.05 54.19-0.03 95.08-0.45 99.5-1.02 4.62-0.61 9.99-2.17 14-4.08 3.96-1.88 8.7-5.29 12.15-8.73 3.44-3.45 6.85-8.19 8.73-12.15 1.91-4.01 3.47-9.38 4.08-14 0.54-4.13 0.98-22.13 0.98-40 0-17.88-0.44-35.88-0.98-40-0.61-4.62-2.17-9.99-4.08-14-1.88-3.96-5.29-8.7-8.73-12.15-3.45-3.44-8.19-6.85-12.15-8.73-4.01-1.91-9.38-3.47-14-4.08-4.13-0.54-22.91-0.99-41.75-1.01l-34.25-0.03zm-144.99-143.74c3.52 0 6.48 0.63 8.23 1.75 1.5 0.96 3.63 3.09 4.74 4.74 1.41 2.1 2.01 4.65 2.01 8.5 0 3.85-0.6 6.4-2.01 8.5-1.11 1.65-3.24 3.78-4.74 4.74-1.75 1.12-4.71 1.75-8.23 1.75-3.52 0-6.49-0.63-8.23-1.75-1.5-0.96-3.64-3.09-4.75-4.74-1.41-2.1-2.01-4.65-2.01-8.5 0-4.07 0.56-6.24 2.15-8.36 1.18-1.57 3.31-3.71 4.74-4.74 1.8-1.31 4.29-1.89 8.1-1.89zm70 332c3.52 0 6.48 0.63 8.23 1.75 1.5 0.96 3.63 3.09 4.74 4.74 1.41 2.1 2.01 4.65 2.01 8.5 0 3.85-0.6 6.4-2.01 8.5-1.11 1.65-3.24 3.78-4.74 4.74-1.75 1.12-4.71 1.75-8.23 1.75-3.52 0-6.49-0.63-8.23-1.75-1.5-0.96-3.64-3.09-4.75-4.74-1.41-2.1-2.01-4.65-2.01-8.5 0-4.07 0.56-6.24 2.15-8.36 1.18-1.57 3.31-3.71 4.74-4.74 1.8-1.31 4.29-1.89 8.1-1.89z"/>
</svg>